<?xml version="1.0" encoding="iso-8859-1"?>
<!-- Generator: Adobe Illustrator 19.0.0, SVG Export Plug-In . SVG Version: 6.00 Build 0)  -->
<svg xmlns="http://www.w3.org/2000/svg" xmlns:xlink="http://www.w3.org/1999/xlink" version="1.1" id="Layer_1" x="0px" y="0px" viewBox="0 0 511.998 511.998" style="enable-background:new 0 0 511.998 511.998;" xml:space="preserve" width="512px" height="512px">
<g>
	<g>
		<path d="M293.18,146.9c-1.721-3.766-6.168-5.425-9.937-3.704c-3.85,1.759-7.813,3.389-11.783,4.845    c-3.889,1.426-6.037,5.793-4.46,9.622c2.871,6.968,8.771,4.773,9.623,4.46c4.33-1.588,8.654-3.366,12.853-5.285    C293.244,155.117,294.902,150.668,293.18,146.9z" fill="#FFFFFF"/>
	</g>
</g>
<g>
	<g>
		<path d="M500.959,58.773c-8.771-8.771-21.204-12.563-33.159-10.495c-1.963-3.725-4.477-7.126-7.514-10.165    c-16.537-16.537-43.447-16.537-59.984,0c-2.555,2.556-4.756,5.396-6.569,8.475c-4.06-0.403-8.205,0.038-12.147,1.398    c-9.174,3.166-23.975,11.895-23.562,35.105l-26.736,26.736c-9.184,9.184-19.458,17.277-30.538,24.058    c-3.533,2.162-4.696,6.809-2.483,10.311c3.436,5.438,9.089,3.23,10.311,2.483c12.088-7.395,23.298-16.227,33.317-26.246    l23.77-23.77l11.893,11.892c2.928,2.93,7.676,2.929,10.605,0s2.929-7.677-0.001-10.605l-15.158-15.159    c-0.203-10.812,4.123-17.399,13.474-20.626c5.01-1.729,10.743-0.351,14.604,3.51l19.531,19.531    c3.861,3.861,5.239,9.593,3.51,14.604c-3.483,10.096-10.88,14.337-23.291,13.338c-2.281-0.178-34.976,31.246-34.976,31.246    c-18.343,18.343-32.76,40.913-41.691,65.269l-16.569,45.189c-0.676,1.844-1.381,3.68-2.11,5.505l-9.792-9.792    c2.602-16.589-2.755-33.233-14.746-45.224c-11.99-11.992-28.636-17.346-45.224-14.745l-9.793-9.793    c1.827-0.729,31.211-11.536,31.211-11.536c3.889-1.426,5.885-5.733,4.46-9.623c-1.427-3.888-5.735-5.884-9.623-4.459    l-25.705,9.425c-30.802,11.294-59.345,29.525-82.541,52.723L15.873,345.192c-16.797,16.798-20.677,42.1-9.653,62.961    c12.519,23.691,28.625,39.42,30.606,41.308c1.882,1.974,17.611,18.085,41.309,30.607c7.916,4.183,16.468,6.219,24.956,6.219    c13.881,0,27.581-5.451,38.005-15.874l127.858-127.858c23.198-23.199,41.43-51.74,52.723-82.54l16.568-45.189    c8.187-22.326,21.401-43.014,38.216-59.828l11.922-11.923c2.577,6.694,6.528,12.792,11.721,17.984    c9.8,9.799,22.828,15.196,36.686,15.196c13.858,0,26.887-5.397,36.685-15.196c10.815-10.814,16.201-25.615,15.042-40.627    c4.63-1.884,8.852-4.681,12.442-8.27C515.678,97.443,515.678,73.493,500.959,58.773z M154.336,227.939    c5.187-5.187,10.665-10.098,16.383-14.728l7.634,7.634c-5.759,4.612-11.275,9.525-16.43,14.682l-27.312,27.313l-7.587-7.587    L154.336,227.939z M130.488,459.809c-12.115,12.116-30.339,14.931-45.348,6.999c-22.427-11.851-37.394-27.625-37.537-27.777    c-0.108-0.116-0.226-0.233-0.341-0.342c-0.158-0.148-15.934-15.116-27.783-37.543c-7.93-15.008-5.118-33.232,6.999-45.349    l27.174-27.174l7.587,7.587l-27.172,27.172c-8.632,8.631-10.728,22.098-5.101,32.748c9.603,18.177,25.212,34.248,25.872,34.923    c0.04,0.042,0.081,0.082,0.122,0.122c0.687,0.671,17.016,16.539,35.193,26.144c3.996,2.112,8.387,3.136,12.771,3.136    c7.302,0,14.585-2.843,19.977-8.235l27.174-27.172l7.586,7.586L130.488,459.809z M71.845,346.817l67.624,67.625l-27.174,27.174    c-4.021,4.022-10.246,5.028-15.136,2.444c-15.688-8.289-30.562-22.495-31.653-23.547c-1.049-1.088-14.996-15.707-23.28-31.387    c-2.584-4.889-1.578-11.112,2.445-15.135L71.845,346.817z M168.268,422.028l-104.01-104.01l8.952-8.952l104.01,104.01    L168.268,422.028z M187.825,402.471L83.815,298.46l13.045-13.045l104.01,104.01L187.825,402.471z M211.476,378.82l-104.01-104.01    l8.952-8.952l104.01,104.01L211.476,378.82z M258.347,331.949l-27.312,27.313l-7.586-7.586c0,0,31.877-31.993,34.073-34.417    c2.78-3.07,2.545-7.812-0.525-10.593c-3.069-2.78-7.812-2.547-10.593,0.524c-2.029,2.242-33.561,33.88-33.561,33.88    l-67.625-67.625l27.313-27.313c5.154-5.155,10.705-10.04,16.508-14.603l2.875,2.875c-2.601,16.589,2.756,33.233,14.746,45.224    c11.99,11.991,28.634,17.345,45.224,14.746l21.192,21.193C268.445,321.284,263.533,326.764,258.347,331.949z M282.178,303.456    l-22.515-22.515c-1.846-1.845-4.517-2.6-7.05-1.99c-12.844,3.074-26.055-0.637-35.348-9.929    c-9.292-9.292-13.004-22.507-9.929-35.349c0.607-2.536-0.146-5.206-1.99-7.049l-22.516-22.516    c9.028-6.307,18.541-11.93,28.418-16.774l16.693,16.694c1.846,1.844,4.515,2.598,7.05,1.99c12.84-3.074,26.056,0.635,35.348,9.928    c9.293,9.293,13.005,22.507,9.929,35.348c-0.607,2.536,0.146,5.206,1.99,7.049l16.693,16.693    C294.109,284.914,288.485,294.427,282.178,303.456z M490.353,101.557c-3.193,3.193-7.212,5.344-11.623,6.221    c-1.967,0.391-3.695,1.554-4.799,3.228c-1.104,1.674-1.491,3.721-1.075,5.682c2.604,12.287-1.129,24.91-9.986,33.767    c-14.38,14.379-37.779,14.382-52.16,0c-5.367-5.367-8.878-12.084-10.211-19.494l2.696-2.696    c0.319,0.006,25.996,3.537,35.106-23.562c3.505-10.425,0.808-22.213-7.081-30.102l-19.532-19.532    c-1.122-1.121-2.33-2.127-3.595-3.039c0.848-1.168,1.782-2.278,2.816-3.312c10.688-10.689,28.083-10.689,38.771,0    c3.071,3.07,5.31,6.712,6.656,10.825c0.639,1.95,2.048,3.553,3.899,4.436c1.854,0.883,3.984,0.969,5.9,0.237    c8.38-3.198,17.885-1.17,24.217,5.163C499.225,78.251,499.225,92.685,490.353,101.557z" fill="#FFFFFF"/>
	</g>
</g>
<g>
	<g>
		<path d="M395.121,186.338c-17.136,0-31.078,13.942-31.078,31.079c0,17.137,13.942,31.079,31.078,31.079    c17.136,0,31.079-13.942,31.079-31.079C426.201,200.28,412.259,186.338,395.121,186.338z M395.121,233.497    c-8.866,0-16.08-7.213-16.08-16.081s7.213-16.081,16.08-16.081c8.866,0,16.081,7.213,16.081,16.081    S403.988,233.497,395.121,233.497z" fill="#FFFFFF"/>
	</g>
</g>
<g>
	<g>
		<path d="M458.074,207.516c-11.709,0-21.234,9.525-21.234,21.234c0,11.709,9.525,21.234,21.234,21.234    c11.708,0,21.233-9.525,21.233-21.234S469.781,207.516,458.074,207.516z M458.074,234.985c-3.438,0-6.235-2.798-6.235-6.235    c0-3.438,2.798-6.235,6.235-6.235s6.234,2.797,6.234,6.235C464.308,232.189,461.511,234.985,458.074,234.985z" fill="#FFFFFF"/>
	</g>
</g>
<g>
	<g>
		<path d="M427.547,267.841c-13.394,0-24.29,10.896-24.29,24.29c0,2.146,0.281,4.278,0.837,6.336    c1.079,3.999,5.195,6.365,9.194,5.286c3.999-1.079,6.365-5.196,5.286-9.194c-0.212-0.785-0.319-1.602-0.319-2.429    c0-5.124,4.168-9.291,9.291-9.291s9.291,4.168,9.291,9.291c0,5.123-4.168,9.291-9.291,9.291c-4.143,0-7.499,3.358-7.499,7.499    c0,4.142,3.357,7.499,7.499,7.499c13.394,0,24.29-10.896,24.29-24.29C451.837,278.737,440.941,267.841,427.547,267.841z" fill="#FFFFFF"/>
	</g>
</g>
<g>
	<g>
		<path d="M263.151,223.134c-5.344-5.344-12.347-8.015-19.349-8.015c-7.002,0-14.007,2.672-19.349,8.015    c-10.687,10.687-10.687,28.012,0,38.699c5.342,5.344,12.346,8.015,19.349,8.015s14.007-2.672,19.349-8.015    C273.839,251.148,273.839,233.821,263.151,223.134z M252.546,251.229c-2.336,2.336-5.441,3.622-8.744,3.622    c-3.303,0-6.408-1.286-8.744-3.622c-4.822-4.822-4.822-12.667,0-17.488c2.336-2.336,5.442-3.622,8.744-3.622    c3.303,0,6.408,1.286,8.744,3.622C257.368,238.562,257.368,246.407,252.546,251.229z" fill="#FFFFFF"/>
	</g>
</g>
<g>
	<g>
		<path d="M216.091,314.233c-1.35-1.35-3.233-2.126-5.145-2.126c-1.922,0-3.796,0.777-5.145,2.126    c-1.359,1.358-2.135,3.232-2.135,5.154c0,1.912,0.776,3.786,2.135,5.144c1.349,1.35,3.233,2.126,5.145,2.126    s3.795-0.776,5.145-2.126c1.359-1.359,2.136-3.233,2.136-5.144C218.227,317.466,217.45,315.592,216.091,314.233z" fill="#FFFFFF"/>
	</g>
</g>
<g>
	<g>
		<path d="M204.028,286.238c-1.35-1.35-3.233-2.126-5.145-2.126c-1.922,0-3.796,0.777-5.145,2.126    c-1.359,1.358-2.135,3.232-2.135,5.154c0,1.912,0.776,3.786,2.135,5.144c1.349,1.35,3.233,2.126,5.145,2.126    c1.912,0,3.795-0.776,5.145-2.126c1.359-1.359,2.136-3.233,2.136-5.144C206.164,289.47,205.387,287.596,204.028,286.238z" fill="#FFFFFF"/>
	</g>
</g>
<g>
	<g>
		<path d="M90.861,402.712c-1.35-1.35-3.233-2.126-5.145-2.126c-1.922,0-3.796,0.777-5.145,2.126    c-1.359,1.358-2.135,3.232-2.135,5.154c0,1.912,0.776,3.786,2.135,5.144c1.349,1.35,3.233,2.126,5.145,2.126    c1.912,0,3.796-0.777,5.145-2.126c1.359-1.359,2.136-3.233,2.136-5.144C92.997,405.945,92.22,404.071,90.861,402.712z" fill="#FFFFFF"/>
	</g>
</g>
<g>
	<g>
		<path d="M122.927,405.989c-1.35-1.35-3.233-2.126-5.145-2.126c-1.922,0-3.796,0.777-5.145,2.126    c-1.359,1.358-2.135,3.232-2.135,5.154c0,1.912,0.776,3.786,2.135,5.145c1.349,1.35,3.233,2.126,5.145,2.126    s3.795-0.777,5.145-2.126c1.359-1.359,2.136-3.233,2.136-5.145C125.063,409.221,124.286,407.348,122.927,405.989z" fill="#FFFFFF"/>
	</g>
</g>
<g>
</g>
<g>
</g>
<g>
</g>
<g>
</g>
<g>
</g>
<g>
</g>
<g>
</g>
<g>
</g>
<g>
</g>
<g>
</g>
<g>
</g>
<g>
</g>
<g>
</g>
<g>
</g>
<g>
</g>
</svg>
